<svg viewBox="0 0 220 78" width="220" height="78" xmlns="http://www.w3.org/2000/svg">
  <!-- Orange dot cluster arranged in D/arc shape -->

  <!-- Row 1 (top arc) -->
  <circle cx="22" cy="7"  r="3.2" fill="#F7941D"/>
  <circle cx="33" cy="5"  r="3.4" fill="#F7941D"/>
  <circle cx="44" cy="5"  r="3.4" fill="#F7941D"/>
  <circle cx="55" cy="7"  r="3.2" fill="#F7941D"/>

  <!-- Row 2 -->
  <circle cx="12" cy="17" r="3.4" fill="#F7941D"/>
  <circle cx="23" cy="15" r="3.8" fill="#F7941D"/>
  <circle cx="34" cy="13" r="3.8" fill="#F7941D"/>
  <circle cx="46" cy="14" r="3.8" fill="#F7941D"/>
  <circle cx="57" cy="17" r="3.4" fill="#F7941D"/>

  <!-- Row 3 (middle, largest) -->
  <circle cx="7"  cy="29" r="3.5" fill="#F7941D"/>
  <circle cx="18" cy="27" r="4.0" fill="#F7941D"/>
  <circle cx="30" cy="25" r="4.2" fill="#F7941D"/>
  <circle cx="42" cy="25" r="4.2" fill="#F7941D"/>
  <circle cx="54" cy="27" r="4.0" fill="#F7941D"/>
  <circle cx="62" cy="30" r="3.5" fill="#F7941D"/>

  <!-- Row 4 -->
  <circle cx="12" cy="42" r="3.4" fill="#F7941D"/>
  <circle cx="23" cy="40" r="3.8" fill="#F7941D"/>
  <circle cx="35" cy="38" r="3.8" fill="#F7941D"/>
  <circle cx="46" cy="39" r="3.8" fill="#F7941D"/>
  <circle cx="57" cy="42" r="3.4" fill="#F7941D"/>

  <!-- Row 5 (bottom arc) -->
  <circle cx="22" cy="52" r="3.2" fill="#F7941D"/>
  <circle cx="33" cy="54" r="3.4" fill="#F7941D"/>
  <circle cx="44" cy="54" r="3.4" fill="#F7941D"/>
  <circle cx="55" cy="52" r="3.2" fill="#F7941D"/>

  <!-- Text: Religh (white) -->
  <text x="76" y="46"
        font-family="'Arial Black', 'Helvetica Neue', Arial, sans-serif"
        font-weight="900"
        font-size="33"
        fill="#FFFFFF">Religh</text>

  <!-- Text: Technologies (white) -->
  <text x="79" y="64"
        font-family="Arial, Helvetica, sans-serif"
        font-weight="400"
        font-size="13"
        fill="#FFFFFF"
        letter-spacing="0.8">Technologies</text>
</svg>
